<svg xmlns="http://www.w3.org/2000/svg" xmlns:xlink="http://www.w3.org/1999/xlink">
  <symbol id="logo" viewBox="0 0 88 34">
    <path
      d="M30.694 7.56678V13.4646C30.694 13.6621 30.8356 13.8101 31.0243 13.8101H32.6522C32.8409 13.8101 32.9825 13.6374 32.9825 13.4646V7.5421L37.064 1.37279C37.2055 1.12602 37.064 0.829895 36.7809 0.829895H34.9643C34.8227 0.829895 34.7283 0.928604 34.6811 1.00264L31.85 5.2718L29.0189 1.00264C28.9718 0.928604 28.8774 0.829895 28.7358 0.829895H26.9192C26.6361 0.829895 26.4945 1.12602 26.6361 1.37279L30.694 7.56678Z"
      fill="#1A1A1A"/>
    <path fill-rule="evenodd" clip-rule="evenodd"
          d="M51.1958 7.3447C51.1958 11.0463 48.3647 13.9829 44.8259 13.9829C41.287 13.9829 38.4795 11.0463 38.4795 7.3447C38.4795 3.64311 41.287 0.657166 44.8259 0.657166C48.3647 0.657166 51.1958 3.64311 51.1958 7.3447ZM48.9074 7.3447C48.9074 5.02504 47.0672 3.07553 44.8259 3.07553C42.6082 3.07553 40.7916 5.00036 40.768 7.3447C40.768 9.68904 42.5846 11.5892 44.8259 11.5892C47.0672 11.5892 48.9074 9.68904 48.9074 7.3447Z"
          fill="#1A1A1A"/>
    <path
      d="M58.5332 13.9829C61.3407 13.9829 63.464 11.7126 63.464 8.8994V1.2001C63.464 1.00268 63.2989 0.854614 63.1338 0.854614H61.4587C61.2699 0.854614 61.1284 1.02736 61.1284 1.2001V8.80069C61.1284 10.3554 60.0903 11.5892 58.5332 11.5892C56.9761 11.5892 55.9616 10.3554 55.9616 8.77601V1.2001C55.9616 1.00268 55.8201 0.854614 55.6313 0.854614H53.9563C53.7675 0.854614 53.626 1.02736 53.626 1.2001V8.8994C53.626 11.7126 55.7493 13.9829 58.5332 13.9829Z"
      fill="#1A1A1A"/>
    <path
      d="M9.62574 30.3932C9.50778 30.2699 9.31904 30.2699 9.17748 30.3932C8.42252 31.0349 7.52601 31.4544 6.46434 31.4544C4.19946 31.4544 2.5008 29.4802 2.5008 27.1852C2.5008 24.8409 4.17587 22.8667 6.44075 22.8667C7.43164 22.8667 8.42252 23.2862 9.17748 23.9525C9.31904 24.1006 9.50778 24.1006 9.62574 23.9525L10.711 22.7927C10.8525 22.6446 10.8525 22.4225 10.6874 22.2744C9.48418 21.1393 8.1866 20.547 6.39357 20.547C2.85469 20.5223 0 23.5083 0 27.2099C0 30.9115 2.85469 33.8481 6.39357 33.8481C7.97426 33.8481 9.48418 33.2805 10.6874 32.0466C10.8054 31.9232 10.8525 31.6765 10.711 31.5531L9.62574 30.3932Z"
      fill="#1A1A1A"/>
    <path fill-rule="evenodd" clip-rule="evenodd"
          d="M12.0796 27.2099C12.0796 23.5083 14.8871 20.5223 18.426 20.5223C21.9884 20.5223 24.7959 23.5083 24.7959 27.2099C24.7959 30.9115 21.9648 33.8481 18.426 33.8481C14.8871 33.8481 12.0796 30.9115 12.0796 27.2099ZM14.3681 27.2099C14.3681 29.5542 16.1847 31.4544 18.426 31.4544C20.6673 31.4544 22.5075 29.5542 22.5075 27.2099C22.5075 24.8902 20.6673 22.9407 18.426 22.9407C16.1847 22.9407 14.3681 24.8655 14.3681 27.2099Z"
          fill="#1A1A1A"/>
    <path
      d="M37.2525 20.7198H35.6246C35.4359 20.7198 35.2943 20.8925 35.2943 21.0652V28.7152H35.2708L27.9099 20.5223H27.4616C27.2729 20.5223 27.1313 20.6704 27.1313 20.8678V33.3298C27.1313 33.5272 27.2965 33.6753 27.4616 33.6753H29.0659C29.2547 33.6753 29.3962 33.5026 29.3962 33.3298V25.3591H29.4198L36.8279 33.8727H37.2525C37.4413 33.8727 37.5828 33.7247 37.5828 33.5272V21.0652C37.6064 20.8925 37.4413 20.7198 37.2525 20.7198Z"
      fill="#1A1A1A"/>
    <path
      d="M87.5988 31.4544H83.0927V21.0653C83.0927 20.8679 82.9275 20.7198 82.7624 20.7198H81.1345C80.9458 20.7198 80.8042 20.8925 80.8042 21.0653V33.3299C80.8042 33.5273 80.9458 33.6753 81.1345 33.6753H87.6224C87.8112 33.6753 87.9527 33.5026 87.9527 33.3299V31.7999C87.9291 31.6271 87.7876 31.4544 87.5988 31.4544Z"
      fill="#1A1A1A"/>
    <path fill-rule="evenodd" clip-rule="evenodd"
          d="M58.6037 20.7198C60.727 20.7198 62.4729 22.4965 62.4729 24.6928C62.4729 26.3956 61.3876 27.8022 59.8541 28.4438L62.2841 33.1571C62.4021 33.4039 62.2841 33.7 61.9774 33.7H60.1136C59.9485 33.7 59.8777 33.6013 59.8305 33.5273L57.4713 28.6165H55.5131V33.3299C55.5131 33.5026 55.3715 33.6753 55.1828 33.6753H53.5549C53.3662 33.6753 53.2246 33.5273 53.2246 33.3299V21.0653C53.2246 20.8925 53.3662 20.7198 53.5549 20.7198H58.6037ZM55.5367 26.6176H58.415C59.3587 26.6176 60.1844 25.7786 60.1608 24.7422C60.1608 23.7551 59.3587 22.9407 58.415 22.9407H55.5367V26.6176Z"
          fill="#1A1A1A"/>
    <path fill-rule="evenodd" clip-rule="evenodd"
          d="M64.9268 27.2099C64.9268 23.5083 67.7343 20.5223 71.2731 20.5223C74.812 20.5223 77.6431 23.5083 77.6431 27.2099C77.6431 30.9115 74.812 33.8481 71.2731 33.8481C67.7343 33.8481 64.9268 30.9115 64.9268 27.2099ZM67.2152 27.2099C67.2152 29.5542 69.0319 31.4544 71.2731 31.4544C73.5144 31.4544 75.3546 29.5542 75.3546 27.2099C75.3546 24.8902 73.5144 22.9407 71.2731 22.9407C69.0319 22.9407 67.2152 24.8655 67.2152 27.2099Z"
          fill="#1A1A1A"/>
    <path
      d="M87.8582 18.104V16.574C87.8582 16.3766 87.7166 16.2285 87.5279 16.2285H48.7183H40.9799H0.589572C0.400832 16.2285 0.259277 16.4013 0.259277 16.574V18.104C0.259277 18.3014 0.400832 18.4495 0.589572 18.4495H5.42603H7.26625H40.9563H43.6695V33.3052C43.6695 33.5026 43.8346 33.6507 43.9998 33.6507H45.6512C45.84 33.6507 45.9815 33.4779 45.9815 33.3052V18.4741H48.6947H87.5279C87.7166 18.4741 87.8582 18.3014 87.8582 18.104Z"
      fill="#1A1A1A"/>
  </symbol>
  <symbol id="dashboard" viewBox="0 0 24 24">
    <path fill-rule="evenodd" clip-rule="evenodd"
          d="M13 9V3H21V9H13ZM21 21H13V11H21V21ZM3 21H11V15H3V21ZM11 13H3V3H11V13Z" fill="#30BF60"/>
  </symbol>
  <symbol id="dossier" viewBox="0 0 24 24">
    <path fill-rule="evenodd" clip-rule="evenodd" d="M16 5H10V7H16V5Z" fill="#757575"/>
    <path fill-rule="evenodd" clip-rule="evenodd" d="M16 8H8V10H16V8Z" fill="#757575"/>
    <path fill-rule="evenodd" clip-rule="evenodd" d="M16 11H8V13H16V11Z" fill="#757575"/>
    <path fill-rule="evenodd" clip-rule="evenodd"
          d="M7 4H17V14H16C15.448 14 15 14.448 15 15V16H9V15C9 14.448 8.552 14 8 14H7V4ZM20 14H19V3C19 2.448 18.552 2 18 2H6C5.448 2 5 2.448 5 3V14H4C3.448 14 3 14.448 3 15V20C3 21.103 3.897 22 5 22H19C20.103 22 21 21.103 21 20V15C21 14.448 20.552 14 20 14Z"
          fill="#757575"/>
  </symbol>
  <symbol id="monitoring" viewBox="0 0 24 24">
    <path fill-rule="evenodd" clip-rule="evenodd"
          d="M12 2.5C7.14 2.5 2.78 5.5 1 10C3.39 16.08 10.25 19.06 16.33 16.67C19.38 15.47 21.8 13.06 23 10C21.22 5.5 16.86 2.5 12 2.5ZM7 10C7 12.7614 9.23858 15 12 15C14.7614 15 17 12.7614 17 10C17 7.23858 14.7614 5 12 5C9.23858 5 7 7.23858 7 10ZM9 10C9 8.34315 10.3431 7 12 7C13.6569 7 15 8.34315 15 10C15 11.6569 13.6569 13 12 13C10.3431 13 9 11.6569 9 10ZM9 20H7V22H9V20ZM13 20V22H11V20H13ZM17 20H15V22H17V20Z"
          fill="#757575"/>
  </symbol>
  <symbol id="counterparties" viewBox="0 0 24 24">
    <path fill-rule="evenodd" clip-rule="evenodd"
          d="M6 6C7.65685 6 9 7.34315 9 9C9 10.6569 7.65685 12 6 12C4.34315 12 3 10.6569 3 9C3 7.34315 4.34315 6 6 6ZM6 14C8 14 12 15 12 17V19H0V17C0 15 4 14 6 14ZM15.1468 12.9271L14.4733 16.8541L18 15L21.5267 16.8541L20.8532 12.9271L23.7063 10.1459L19.7634 9.57295L18 6L16.2366 9.57295L12.2937 10.1459L15.1468 12.9271Z"
          fill="#757575"/>
  </symbol>
  <symbol id="calls" viewBox="0 0 24 24">
    <path fill-rule="evenodd" clip-rule="evenodd"
          d="M21 15H19V14C19 12.346 17.654 11 16 11H13V9H15C15.552 9 16 8.552 16 8V3C16 2.448 15.552 2 15 2H9C8.448 2 8 2.448 8 3V8C8 8.552 8.448 9 9 9H11V11H8C6.346 11 5 12.346 5 14V15H3C2.448 15 2 15.448 2 16V21C2 21.552 2.448 22 3 22H9C9.552 22 10 21.552 10 21V16C10 15.448 9.552 15 9 15H7V14C7 13.449 7.449 13 8 13H16C16.551 13 17 13.449 17 14V15H15C14.448 15 14 15.448 14 16V21C14 21.552 14.448 22 15 22H21C21.552 22 22 21.552 22 21V16C22 15.448 21.552 15 21 15Z"
          fill="#757575"/>
  </symbol>
  <symbol id="markets" viewBox="0 0 24 24">
    <path fill-rule="evenodd" clip-rule="evenodd"
          d="M19.3273 10.7967C19.3273 6.4982 15.8293 3.00017 11.5308 3.00017H10.6645V11.663H19.3273V10.7967ZM8.93023 12.5301V4.78644L8.82281 4.8003C4.93322 5.28628 2 8.60932 2 12.5292C2 16.8286 5.49803 20.3258 9.79651 20.3258C11.6244 20.3258 13.4011 19.6804 14.7993 18.5057L14.8573 18.4572L8.93023 12.5301ZM18.1612 19.5218L12.0375 13.3964H21.0581C21.0581 15.4781 20.2472 17.435 18.7745 18.9085L18.1612 19.5218Z"
          fill="#737373"/>
  </symbol>
  <symbol id="registers" viewBox="0 0 24 24">
    <path fill-rule="evenodd" clip-rule="evenodd"
          d="M3.02087 5H8.96887V11H3.02087V5ZM5 7V9H7V7H5ZM22 9V7H13V9H22ZM22 15V17H13V15H22ZM2 16.5L5.58974 20L10.8022 14.9179L9.42906 13.4348L5.58974 17.17L3.44615 15.09L2 16.5Z"
          fill="#757575"/>
  </symbol>
  <symbol id="information" viewBox="0 0 24 24">
    <path fill-rule="evenodd" clip-rule="evenodd"
          d="M2 12C2 6.47715 6.47715 2 12 2C14.6522 2 17.1957 3.05357 19.0711 4.92893C20.9464 6.8043 22 9.34784 22 12C22 14.6522 20.9464 17.1957 19.0711 19.0711C17.1957 20.9464 14.6522 22 12 22C9.34784 22 6.8043 20.9464 4.92893 19.0711C3.05357 17.1957 2 14.6522 2 12ZM13 7V9H11V7H13ZM13 11V17H11V11H13Z"
          fill="#757575"/>
  </symbol>
  <symbol id="notifications" viewBox="0 0 16 16">
    <path
      d="M13.6973 5.21619V9.89059C14.5737 9.59155 15.1998 8.64915 15.1998 7.55331C15.1998 6.45763 14.5737 5.51539 13.6973 5.21619Z"
      fill="white"/>
    <path
      d="M12.2588 1.60065C11.8369 1.60065 11.5641 1.87313 11.5641 2.29505C10.5204 3.76529 8.50843 4.81697 6.15723 5.25857V9.84801C8.50859 10.2898 10.5204 11.3413 11.5641 12.8115C11.5641 13.2336 11.8369 13.5059 12.2588 13.5059C12.6807 13.5059 12.9532 13.2334 12.9532 12.8115V2.29521C12.9532 1.87329 12.6807 1.60065 12.2588 1.60065Z"
      fill="white"/>
    <path
      d="M5.36364 9.81018V5.29626H2.98252C1.65644 5.29626 0.799805 6.1529 0.799805 7.47882V7.62762C0.799805 8.9537 1.65644 9.81034 2.98252 9.81034H5.36364V9.81018Z"
      fill="white"/>
    <path
      d="M5.06825 10.505H2.81641L3.59305 13.5669C3.75609 14.2098 4.27657 14.5194 4.91929 14.3567C5.56201 14.1935 5.87193 13.6732 5.70889 13.0304L5.06825 10.505Z"
      fill="white"/>
  </symbol>
  <symbol id="personal" viewBox="0 0 15 16">
    <path
      d="M0.879883 12.6812C1.50809 12.2651 4.84356 10.9263 5.19256 10.9564C5.22746 10.5453 5.26735 10.1341 5.30225 9.71799C5.30723 9.67286 5.2823 9.6127 5.25239 9.58261C4.83359 9.1815 4.77376 8.62496 4.60923 8.11354C4.57931 8.0283 4.56436 7.93805 4.53444 7.82774C4.25524 7.90796 4.14057 7.72746 4.07575 7.50184C3.93116 6.96535 3.77661 6.42886 3.66692 5.88234C3.59712 5.5414 3.74171 5.4361 4.19042 5.4712C4.18045 5.3609 4.16051 5.2556 4.1655 5.15031C4.20538 4.318 4.24028 3.48569 4.31008 2.65338C4.33003 2.41271 4.42974 2.16202 4.55438 1.95143C5.20752 0.873443 6.13487 0.181522 7.40624 0.0311048C8.99669 -0.15441 10.2082 0.497399 11.1156 1.78597C11.4597 2.27232 11.5295 2.8389 11.5494 3.40547C11.5693 4.08736 11.5544 4.76925 11.5544 5.4712C11.6641 5.46117 11.7339 5.44112 11.8037 5.45115C11.9782 5.46619 12.1178 5.55142 12.0978 5.74697C12.033 6.42385 11.8785 7.08067 11.5843 7.69237C11.5444 7.7776 11.3849 7.80769 11.2104 7.90295C11.1256 8.17872 11.0259 8.54975 10.9013 8.90573C10.8364 9.09125 10.7467 9.28178 10.622 9.42718C10.4824 9.58763 10.4376 9.74807 10.4625 9.94863C10.5024 10.2795 10.5323 10.6105 10.5672 10.9063C10.7417 10.9464 10.8963 10.9614 11.0309 11.0166C12.2175 11.508 13.4041 12.0043 14.5907 12.5007C14.6904 12.5408 14.7802 12.596 14.8799 12.6461C11.5295 16.9882 4.52946 17.2338 0.879883 12.6812Z"
      fill="white"/>
  </symbol>
  <symbol id="close" viewBox="0 0 16 16">
    <path d="M2 2L14 14" stroke="#999999" stroke-width="2"/>
    <path d="M2 14L14 1.99829" stroke="#999999" stroke-width="2"/>
  </symbol>
  <symbol id="youscore" viewBox="0 0 16 16">
    <path fill-rule="evenodd" clip-rule="evenodd"
          d="M0.479438 0C0.0794375 0 -0.120562 0.4 0.0794375 0.8L3.37944 5.7L7.27944 0H0.479438ZM11.4784 0L5.77844 8.2V12.4424L9.17844 15.7V9.4C9.17844 9.3 9.17844 9.2 9.27844 9.1L15.0784 0.8C15.3784 0.5 15.1784 0 14.7784 0H11.4784Z"
          fill="#1A1A1A"/>
  </symbol>
  <symbol id="chrome" viewBox="0 0 16 16">
    <path xmlns="http://www.w3.org/2000/svg" fill-rule="evenodd" clip-rule="evenodd"
          d="M7 0H0V3V13V13.0037V16H7V13H3V3H7V0ZM16 0H9V3H13V13H9V16H16V13V3V0Z" fill="#1A1A1A"/>
  </symbol>
  <symbol id="facebook" viewBox="0 0 24 24">
    <path fill-rule="evenodd" clip-rule="evenodd"
          d="M12 24C18.6274 24 24 18.6274 24 12C24 5.37258 18.6274 0 12 0C5.37258 0 0 5.37258 0 12C0 18.6274 5.37258 24 12 24Z"
          fill="#3B5997"/>
    <path
      d="M9.94636 7.94701V9.55001H8.69336V11.517H9.94636V17.341H12.5294V11.517H14.2584C14.2584 11.517 14.4194 10.572 14.4964 9.54301H12.5364V8.20601C12.5912 7.93738 12.8224 7.7409 13.0964 7.73001H14.5034V5.69301H12.5924C9.88336 5.68601 9.94636 7.65301 9.94636 7.94701Z"
      fill="white"/>
  </symbol>
  <symbol id="telegram" viewBox="0 0 24 24">
    <path fill-rule="evenodd" clip-rule="evenodd"
          d="M12 24C18.6274 24 24 18.6274 24 12C24 5.37258 18.6274 0 12 0C5.37258 0 0 5.37258 0 12C0 18.6274 5.37258 24 12 24Z"
          fill="#31ACE0"/>
    <path fill-rule="evenodd" clip-rule="evenodd"
          d="M7.977 13.1386L5.21196 12.09C4.93112 11.9831 4.92868 11.5803 5.20872 11.4706L16.5565 7.02278C16.7971 6.92825 17.0453 7.14238 16.9929 7.39907L14.9565 17.3516C14.9085 17.5866 14.6373 17.6932 14.4459 17.5518L11.666 15.5012C11.4972 15.3767 11.267 15.3834 11.1055 15.5171L9.5642 16.7937C9.38528 16.9423 9.11572 16.8596 9.04724 16.6356L7.977 13.1386ZM14.2787 9.19881L8.87476 12.5804C8.66764 12.7103 8.57012 12.9644 8.63704 13.2023L9.22132 15.2882C9.2628 15.436 9.47396 15.4209 9.49408 15.2682L9.646 14.1243C9.67464 13.9089 9.77576 13.7105 9.93252 13.5623L14.3923 9.35024C14.4757 9.27164 14.3758 9.13821 14.2787 9.19881Z"
          fill="white"/>
  </symbol>
  <symbol id="youtube" viewBox="0 0 24 24">
    <path fill-rule="evenodd" clip-rule="evenodd"
          d="M12 24C18.6274 24 24 18.6274 24 12C24 5.37258 18.6274 0 12 0C5.37258 0 0 5.37258 0 12C0 18.6274 5.37258 24 12 24Z"
          fill="#CD201F"/>
    <path d="M9 7V16.7552L17.5414 11.99L9 7Z" fill="#FFF"/>
  </symbol>
  <symbol id="linkedin" viewBox="0 0 24 24">
    <path fill-rule="evenodd" clip-rule="evenodd"
          d="M12 24C18.6274 24 24 18.6274 24 12C24 5.37258 18.6274 0 12 0C5.37258 0 0 5.37258 0 12C0 18.6274 5.37258 24 12 24Z"
          fill="#0483BF"/>
    <path fill-rule="evenodd" clip-rule="evenodd"
          d="M7.14076 16.9717H9.57307V9.66461H7.14076V16.9717ZM17.5577 10.3338C17.0463 9.77538 16.3706 9.49661 15.5306 9.49661C15.2205 9.49661 14.9398 9.53446 14.686 9.61015C14.4539 9.67609 14.2363 9.78506 14.0445 9.93138C13.87 10.0698 13.7306 10.1972 13.6281 10.3145C13.5303 10.4262 13.4343 10.5572 13.3411 10.7049V9.66461H10.9143L10.9217 10.0191C10.9263 10.2545 10.9291 10.9818 10.9291 12.2012C10.9291 13.4197 10.9235 15.0102 10.9143 16.9708H13.3401V12.8945C13.3401 12.6443 13.3669 12.4449 13.4205 12.2982C13.5238 12.0471 13.6798 11.8366 13.8894 11.6677C14.098 11.4978 14.3574 11.4129 14.6666 11.4129C15.0894 11.4129 15.4005 11.5588 15.5989 11.8514C15.7983 12.144 15.898 12.5483 15.898 13.0643V16.9717H18.3238V12.7846C18.3238 11.7083 18.0681 10.8905 17.5577 10.3338ZM8.37215 6.14954C7.96415 6.14954 7.63369 6.26769 7.37892 6.50677C7.12889 6.73932 6.99101 7.06821 7.00046 7.40954C7.00046 7.76861 7.12322 8.06861 7.36969 8.30954C7.6143 8.54954 7.93922 8.66954 8.34261 8.66954H8.35646C8.76999 8.66954 9.1023 8.54954 9.35615 8.30954C9.60907 8.06861 9.73276 7.76861 9.72815 7.40954C9.73285 7.06993 9.59687 6.74351 9.35246 6.50769C9.10692 6.26769 8.78015 6.14954 8.37215 6.14954Z"
          fill="white"/>
  </symbol>
  <symbol id="visa" viewBox="0 0 32 32">
    <path fill-rule="evenodd" clip-rule="evenodd"
          d="M22.1118 12.6202C21.0228 12.0118 18.5443 11.8678 18.5443 12.9884C18.5443 13.4335 19.1051 13.7397 19.781 14.1087C20.8061 14.6684 22.096 15.3726 22.096 16.9256C22.096 19.4067 19.4756 20.3189 17.7392 20.3189C16.0026 20.3189 14.8662 19.7588 14.8662 19.7588L15.2449 17.5338C16.2868 18.382 19.4439 18.6222 19.4439 17.2777C19.4439 16.7128 18.8225 16.3797 18.1019 15.9933C17.1074 15.46 15.9239 14.8254 15.9239 13.3405C15.9239 10.6193 18.9229 10.0593 20.186 10.0593C21.3542 10.0593 22.475 10.4915 22.475 10.4915L22.1118 12.6202ZM8.61209 10.2367L6.18572 17.0538L5.89871 15.5858L5.89892 15.5863L5.83567 15.2573C5.54202 14.6156 4.86191 13.3961 3.57769 12.3553C3.19802 12.0476 2.81529 11.7851 2.44531 11.5608L4.65049 20.1483H7.30204L11.3512 10.2367H8.61209ZM12.3439 10.2367L10.7533 20.1483H13.2981L14.8889 10.2367H12.3439ZM28.9292 10.2367H26.8831C25.9383 10.2367 25.7082 10.9754 25.7082 10.9754L21.913 20.1483H24.5655L25.0962 18.6761H28.3315L28.63 20.1483H30.9667L28.9292 10.2367ZM27.1668 12.933L25.8295 16.6422H27.9191L27.1668 12.933Z"
          fill="#005BAC"/>
    <path
      d="M5.3635 11.4017C5.3635 11.4017 5.25818 10.4946 4.1338 10.4946H0.0488254L0.000976562 10.6651C0.000976562 10.6651 1.96454 11.0767 3.84833 12.6189C5.64856 14.0928 6.23583 15.9302 6.23583 15.9302L5.3635 11.4017Z"
      fill="#F6AC1D"/>
  </symbol>
  <symbol id="visa-icon" viewBox="0 0 32 32">
    <path d="M12.6299 9.63757H19.0238V21.3458H12.6299V9.63757Z" fill="#FF5F00"/>
    <path
      d="M13.0365 15.4917C13.0365 13.12 14.1268 10.9929 15.8269 9.6376C14.5888 8.63995 13.018 8.0376 11.3179 8.0376C7.27088 8.0376 4 11.3694 4 15.4917C4 19.5952 7.27088 22.9458 11.3179 22.9458C13.018 22.9458 14.5888 22.3435 15.8269 21.3458C14.1268 19.9717 13.0365 17.8635 13.0365 15.4917Z"
      fill="#EB001B"/>
    <path fill-rule="evenodd" clip-rule="evenodd"
          d="M27.6541 15.4917C27.6541 19.5952 24.3832 22.9458 20.3362 22.9458C18.636 22.9458 17.0653 22.3435 15.8271 21.3458C17.5273 19.9905 18.6176 17.8635 18.6176 15.4917C18.6176 13.12 17.5273 10.9929 15.8271 9.6376C17.0653 8.63995 18.636 8.0376 20.3362 8.0376C24.3832 8.0376 27.6541 11.3694 27.6541 15.4917ZM26.9518 20.1035V19.8588H27.0442V19.8023H26.804V19.8588H26.8964V20.1035H26.9518ZM27.4323 19.8211V20.1035H27.3584V19.8776L27.2845 20.0658H27.229L27.1551 19.8776V20.1035H27.0997V19.8211H27.1736L27.266 20.0282L27.3584 19.8211H27.4323Z"
          fill="#F79E1B"/>
  </symbol>
  <symbol id="alert" viewBox="0 0 56 56">
    <g clip-path="url(#clip0_237_57)">
      <path fill-rule="evenodd" clip-rule="evenodd"
            d="M45.562 21.0104C48.2891 21.3371 50.4105 23.663 50.4105 26.4766V26.8787C50.4105 29.6922 48.2891 32.0182 45.562 32.3448V46.4664C45.562 47.331 45.0011 48.0631 44.1663 48.2881C43.998 48.3333 43.829 48.3553 43.6627 48.3553C43.0047 48.3553 42.3912 48.0113 42.0444 47.4145C39.0613 42.2825 34.363 38.7746 28.08 36.9882C23.3288 35.6373 19.4083 35.8333 19.3693 35.8355C19.3114 35.8388 19.2539 35.836 19.1971 35.8302H17.9488L20.547 46.5142C20.8146 47.6152 20.5667 48.7576 19.8664 49.6485C19.1662 50.5393 18.1148 51.0502 16.9818 51.0502H14.8787C13.1808 51.0502 11.7147 49.8979 11.3135 48.2481L8.28341 35.7879C3.64295 35.3486 0 31.4312 0 26.6776C0 21.6309 4.10594 17.5249 9.15272 17.5249H19.1989C19.2556 17.5192 19.3128 17.5165 19.3703 17.5198C19.4082 17.5221 23.3288 17.7179 28.08 16.3671C34.3631 14.5807 39.0614 11.0728 42.0444 5.94069C42.4788 5.19333 43.3316 4.84245 44.1663 5.06722C45.0011 5.2922 45.562 6.02436 45.562 6.88897V21.0104ZM18.4213 47.0311L18.0758 45.6101H17.201C16.5969 45.6101 16.1072 45.1205 16.1072 44.5164C16.1072 43.9123 16.5969 43.4226 17.201 43.4226H17.5437L17.0019 41.1947H15.9472C15.3431 41.1947 14.8535 40.705 14.8535 40.1009C14.8535 39.4968 15.3431 39.0072 15.9472 39.0072H16.47L15.6975 35.8304H10.545L13.4391 47.7313C13.6011 48.3975 14.193 48.8628 14.8787 48.8628H16.9818C17.4393 48.8628 17.8639 48.6565 18.1465 48.2968C18.4294 47.9371 18.5294 47.4757 18.4213 47.0311ZM43.3743 31.2918V22.0634V7.95745C40.0965 13.055 35.0121 16.6869 28.6043 18.492C25.0566 19.4914 21.9919 19.6911 20.402 19.717V30.0952V33.6383C21.9917 33.6642 25.0563 33.8638 28.6043 34.8633C35.0122 36.6683 40.0965 40.3003 43.3743 45.3978V31.2918ZM45.5618 30.1325C47.078 29.8262 48.2228 28.4836 48.2228 26.8787V26.4766C48.2228 24.8716 47.0778 23.5291 45.5618 23.2228V30.1325ZM18.2145 33.6429V31V29.0014V19.7124H9.15272C5.31213 19.7124 2.1875 22.837 2.1875 26.6776C2.1875 30.5078 5.29539 33.6251 9.12166 33.6421C9.13205 33.6419 9.14233 33.6403 9.15272 33.6403H16.5564C16.5729 33.6403 16.5891 33.6413 16.6053 33.6422C16.6091 33.6424 16.6129 33.6427 16.6167 33.6429H18.2145Z"
            fill="#A8B4CA"/>
      <path
        d="M50.7376 20.2712C51.0004 20.2712 51.2641 20.177 51.4737 19.9862L54.6284 17.1131C55.075 16.7064 55.1074 16.0147 54.7006 15.568C54.2938 15.1214 53.6021 15.0891 53.1554 15.4958L50.0009 18.3687C49.5543 18.7755 49.5219 19.4672 49.9287 19.9139C50.1446 20.1509 50.4405 20.2712 50.7376 20.2712Z"
        fill="#A8B4CA"/>
      <path
        d="M51.4738 33.3189C51.0271 32.9122 50.3354 32.9445 49.9287 33.3911C49.5219 33.8376 49.5543 34.5294 50.0009 34.9362L53.1554 37.8092C53.3652 38.0001 53.6288 38.0943 53.8917 38.0943C54.1887 38.0943 54.4848 37.974 54.7006 37.737C55.1074 37.2904 55.075 36.5986 54.6284 36.1918L51.4738 33.3189Z"
        fill="#A8B4CA"/>
      <path
        d="M54.9067 25.5587H52.4844C51.8803 25.5587 51.3906 26.0484 51.3906 26.6525C51.3906 27.2566 51.8803 27.7462 52.4844 27.7462H54.9067C55.5108 27.7462 56.0005 27.2566 56.0005 26.6525C56.0005 26.0484 55.5108 25.5587 54.9067 25.5587Z"
        fill="#A8B4CA"/>
    </g>
    <defs>
      <clipPath id="clip0_237_57">
        <rect width="56" height="56" fill="white"/>
      </clipPath>
    </defs>
  </symbol>
  <symbol id="arrow-left" viewBox="0 0 16 16" fill="none">
    <path  d="M9.92114 4L6 8L10 12" stroke="#999999" stroke-width="2"
          stroke-linecap="round"/>
  </symbol>
  <symbol id="arrow-right" viewBox="0 0 16 16" fill="none">
    <path d="M6.07886 4L10 8L6 12" stroke="#999999" stroke-width="2" stroke-linecap="round"/>
  </symbol>
</svg>
